Coordinates
version=1
nRows=25
nColumns=23
inDegrees=yes

Units are S.I. units (second, meters, Newtons, ...)
Angles are in degrees.

endheader
time	thorax_tilt	thorax_list	thorax_rotation	thorax_tx	thorax_ty	thorax_tz	sternoclavicular_r2	sternoclavicular_r3	unrotscap_r3	unrotscap_r2	acromioclavicular_r2	acromioclavicular_r3	acromioclavicular_r1	unrothum_r1	unrothum_r3	unrothum_r2	elv_angle	shoulder_elv	shoulder1_r2	shoulder_rot	elbow_flexion	pro_sup
      1.59200000	     -2.33037273	      3.58710728	      7.49263461	     -0.41431831	      1.58141403	      0.04211645	    -19.20133067	      8.13071467	     -8.13272481	     19.20015616	     -3.88753655	     31.41787527	     14.12258413	    -14.12237815	    -31.41846900	      3.88759173	     71.83152364	     79.33944917	    -71.83149645	     27.09351958	     47.09417889	      1.14495193
      1.59600000	     -2.32600877	      3.58820109	      7.48510686	     -0.41460178	      1.58140180	      0.04230112	    -19.20206726	      8.13097449	     -8.13306184	     19.20083434	     -3.88772840	     31.41909327	     14.12313943	    -14.12286028	    -31.41958371	      3.88768187	     71.83040262	     79.34252684	    -71.83053940	     27.09162574	     47.09711301	      1.14471705
      1.60000000	     -2.24838610	      3.61468417	      7.42219788	     -0.41463205	      1.58104612	      0.04232713	    -19.21374924	      8.13595660	     -8.13794998	     19.21260922	     -3.89000877	     31.43815749	     14.13167619	    -14.13153703	    -31.43882490	      3.89014193	     71.82710071	     79.39096747	    -71.82677307	     27.06686154	     47.15923936	      1.14052045
      1.60400000	     -2.24585272	      3.61739084	      7.41271717	     -0.41495173	      1.58105060	      0.04250836	    -19.21422410	      8.13609874	     -8.13819520	     19.21305112	     -3.89014312	     31.43898404	     14.13207761	    -14.13182103	    -31.43952238	      3.89019608	     71.82563351	     79.39349731	    -71.82580275	     27.06513663	     47.16589594	      1.14013521
      1.60800000	     -2.36113902	      3.87413963	      7.18515148	     -0.41387002	      1.58152251	      0.04270669	    -19.21359236	      8.13593151	     -8.13784025	     19.21229439	     -3.89003843	     31.43775358	     14.13144766	    -14.13143865	    -31.43846898	      3.89001105	     71.83910506	     79.38972745	    -71.83922305	     27.13663510	     48.20815354	      1.10380431
      1.61200000	     -2.35686787	      3.87167998	      7.17463725	     -0.41418614	      1.58150231	      0.04290183	    -19.21444140	      8.13615764	     -8.13818571	     19.21286456	     -3.89035686	     31.43903455	     14.13199007	    -14.13191942	    -31.43953034	      3.88999506	     71.83632716	     79.39275289	    -71.83626689	     27.13491401	     48.21205114	      1.10340888
      1.61600000	     -2.26948861	      3.85630833	      7.08081338	     -0.41416763	      1.58098174	      0.04280507	    -19.22716170	      8.14151784	     -8.14363349	     19.22613028	     -3.89256440	     31.46016422	     14.14167096	    -14.14112979	    -31.46041532	      3.89299490	     71.81319971	     79.44592985	    -71.81331105	     27.11131877	     48.29215659	      1.09698322
      1.62000000	     -2.26844831	      3.85616705	      7.07108779	     -0.41450746	      1.58098929	      0.04301225	    -19.22758050	      8.14170524	     -8.14375888	     19.22617725	     -3.89291606	     31.46060459	     14.14171560	    -14.14162098	    -31.46117255	      3.89278449	     71.81102345	     79.44726533	    -71.81106257	     27.11033524	     48.29967652	      1.09649401
      1.62400000	     -2.46355847	      3.86654266	      6.73400729	     -0.41282835	      1.58093676	      0.04293351	    -19.21085320	      8.13443954	     -8.13675185	     19.20965831	     -3.88969168	     31.43370102	     14.12962455	    -14.12951505	    -31.43440601	      3.88939340	     71.70237770	     79.37922773	    -71.70244096	     27.23654770	     49.84967533	      1.01662386
      1.62800000	     -2.45905493	      3.86654015	      6.72511945	     -0.41320371	      1.58092470	      0.04314391	    -19.21169645	      8.13489899	     -8.13712232	     19.21024014	     -3.88981098	     31.43468601	     14.13010376	    -14.12994889	    -31.43527576	      3.88947106	     71.70014148	     79.38208206	    -71.70031997	     27.23341600	     49.85311652	      1.01587438
      1.63200000	     -2.36860967	      3.87983712	      6.65154684	     -0.41329146	      1.58049195	      0.04313039	    -19.22361574	      8.14005397	     -8.14212101	     19.22236556	     -3.89206939	     31.45418862	     14.13885453	    -14.13883986	    -31.45498407	      3.89205991	     71.68386302	     79.43100152	    -71.68375828	     27.19119191	     49.92974202	      1.00441845
      1.63600000	     -2.49317353	      3.95791265	      6.51510387	     -0.41248166	      1.58083197	      0.04321204	    -19.19492788	      8.12792967	     -8.12993300	     19.19352730	     -3.88637618	     31.40723847	     14.11769259	    -14.11775372	    -31.40792840	      3.88611451	     71.55132434	     79.31261335	    -71.55151393	     27.10943716	     51.13302440	      0.86993552
      1.64000000	     -2.48940705	      3.95722444	      6.50440030	     -0.41288874	      1.58081587	      0.04342455	    -19.19559886	      8.12806422	     -8.13024246	     19.19393700	     -3.88659347	     31.40809858	     14.11810172	    -14.11808344	    -31.40874236	      3.88611244	     71.54821610	     79.31489053	    -71.54834408	     27.10621207	     51.13609795	      0.86907359
      1.64400000	     -2.40182905	      3.96072731	      6.41276287	     -0.41295401	      1.58037600	      0.04332698	    -19.20638081	      8.13275409	     -8.13479874	     19.20509140	     -3.88860108	     31.42595538	     14.12613551	    -14.12618884	    -31.42676848	      3.88854207	     71.52145047	     79.36041148	    -71.52155646	     27.06278824	     51.21148747	      0.85619324
      1.64800000	     -2.40059188	      3.96174188	      6.40223015	     -0.41338610	      1.58036320	      0.04357381	    -19.20678124	      8.13279726	     -8.13497878	     19.20530361	     -3.88875067	     31.42648647	     14.12639122	    -14.12634007	    -31.42716524	      3.88851367	     71.51884859	     79.36115981	    -71.51890378	     27.06052296	     51.21911432	      0.85528243
      1.65200000	     -2.54416510	      4.04665163	      6.13679456	     -0.41188952	      1.58064193	      0.04352897	    -19.16876213	      8.11681518	     -8.11895247	     19.16733451	     -3.88106715	     31.36434663	     14.09849499	    -14.09844269	    -31.36509039	      3.88080487	     71.35044305	     79.20437058	    -71.35062043	     27.03195600	     52.90551803	      0.69490592
      1.65600000	     -2.54048899	      4.04580141	      6.12635460	     -0.41233932	      1.58060503	      0.04375214	    -19.16930353	      8.11690155	     -8.11912639	     19.16764747	     -3.88127439	     31.36507399	     14.09877572	    -14.09875277	    -31.36574242	      3.88078302	     71.34730025	     79.20644751	    -71.34743200	     27.02851577	     52.90894191	      0.69388239
      1.66000000	     -2.44775855	      4.04482692	      6.03289728	     -0.41244125	      1.58011849	      0.04365084	    -19.17996091	      8.12154535	     -8.12361308	     19.17866320	     -3.88326401	     31.38269963	     14.10668639	    -14.10679642	    -31.38359050	      3.88318018	     71.31745165	     79.25053064	    -71.31760126	     26.97785423	     52.99678352	      0.67733614
      1.66400000	     -2.60194030	      4.02573967	      5.84909628	     -0.41139623	      1.58052178	      0.04353646	    -19.12676791	      8.09888302	     -8.10109147	     19.12540766	     -3.87248734	     31.29555125	     14.06754321	    -14.06760620	    -31.29646044	      3.87239253	     71.09634182	     79.03092597	    -71.09641030	     26.85902978	     54.44292277	      0.48536741
      1.66800000	     -2.59620239	      4.02580355	      5.84094286	     -0.41188595	      1.58041726	      0.04378785	    -19.12745035	      8.09909570	     -8.10145524	     19.12580997	     -3.87279980	     31.29665360	     14.06807871	    -14.06787912	    -31.29717941	      3.87230771	     71.09426383	     79.03391168	    -71.09425587	     26.85542333	     54.44715485	      0.48427981
      1.67200000	     -2.48791731	      4.03191173	      5.78071204	     -0.41210053	      1.57985468	      0.04383179	    -19.13972065	      8.10421898	     -8.10647040	     19.13796059	     -3.87517218	     31.31627338	     14.07681337	    -14.07693175	    -31.31717489	      3.87485366	     71.07737527	     79.08301428	    -71.07726119	     26.80399808	     54.54277887	      0.46676641
      1.67600000	     -2.61263790	      4.11540357	      5.63685595	     -0.41123290	      1.58054220	      0.04383004	    -19.08183662	      8.07987400	     -8.08210556	     19.08038941	     -3.86346351	     31.22209607	     14.03454989	    -14.03446173	    -31.22275592	      3.86320223	     70.87814891	     78.84515800	    -70.87825552	     26.62685270	     55.97046454	      0.25946616
      1.68000000	     -2.60744192	      4.11443664	      5.62637392	     -0.41175853	      1.58039390	      0.04407515	    -19.08217351	      8.08002857	     -8.08228155	     19.08063259	     -3.86364463	     31.22268718	     14.03479539	    -14.03473454	    -31.22331733	      3.86316001	     70.87483923	     78.84776415	    -70.87500985	     26.62306325	     55.97494872	      0.25819937
      1.68400000	     -2.59941345	      4.11476036	      5.61168966	     -0.41230334	      1.58026766	      0.04432698	    -19.08349900	      8.08041369	     -8.08280096	     19.08170010	     -3.86394687	     31.22456611	     14.03564657	    -14.03551338	    -31.22511250	      3.86332698	     70.87139760	     78.85134844	    -70.87149035	     26.61794182	     55.98305454	      0.25679015
      1.68800000	     -2.62840260	      4.00362987	      5.35103241	     -0.41082528	      1.57986483	      0.04388828	    -19.02737985	      8.05673039	     -8.05903141	     19.02579643	     -3.85248135	     31.13280266	     13.99440378	    -13.99439883	    -31.13361255	      3.85210660	     70.59492583	     78.61978223	    -70.59501951	     26.43666535	     57.67169487	      0.02155679
